# xmcd
#
# Track frame offsets: 
#        150
#        17940
#        28750
#        42632
#        56243
#        71770
#        84057
#        104805
#        115977
#        126794
#        146208
#        159697
#        172626
#        183459
#        191033
#        203016
#        217494
#        232975
#        251769
#        266542
#
# Disc length: 3777 seconds
#
# Revision: 0
# Processed by: cddbd v1.5.2PL0 Copyright (c) Steve Scherf et al.
# Submitted via: ExactAudioCopyFreeDBPlugin 1.0
#
DISCID=350ebf14
DTITLE=Michal Tucny - Legenda [CD2)
DYEAR=2015
DGENRE=Country
TTITLE0=Mam paru
TTITLE1=Rovnou, tady rovnou
TTITLE2=V tyhle skale mi Buh domov dal
TTITLE3=Blizko Little Big Hornu
TTITLE4=Michal Tucny  and Tomas Linka - El Paso
TTITLE5=Michaluv song
TTITLE6=Michal Tucny and Zdenek Rytir - Kosmickej vandr
TTITLE7=Blues Folsomske veznice
TTITLE8=Tenhle druh pisni
TTITLE9=Co dest by nesmyl
TTITLE10=Prodavac
TTITLE11=Vis, co ti slusi
TTITLE12=Nadrazi
TTITLE13=Slapej dal
TTITLE14=Michal Tucny and Tomas Linka - Cizinec
TTITLE15=Necekej uz dal
TTITLE16=Michal Tucny and Zdenek Rytir, Wabi Ryvola - Stary dobry wester
TTITLE16=n
TTITLE17=Michal Tucny and Vera Martinova - Bud nad veci
TTITLE18=Jizansky rok
TTITLE19=Jeste dlouhou cestu mam
EXTD=
EXTT0=
EXTT1=
EXTT2=
EXTT3=
EXTT4=
EXTT5=
EXTT6=
EXTT7=
EXTT8=
EXTT9=
EXTT10=
EXTT11=
EXTT12=
EXTT13=
EXTT14=
EXTT15=
EXTT16=
EXTT17=
EXTT18=
EXTT19=
PLAYORDER=
